<mxfile host="www.draw.io" modified="2019-12-04T16:56:22.399Z" agent="Mozilla/5.0 (Macintosh; Intel Mac OS X 10.12; rv:70.0) Gecko/20100101 Firefox/70.0" etag="Yjj_TaOyQB7l1ipisSob" version="12.3.6" type="github" pages="1">
  <diagram name="Page-1" id="97916047-d0de-89f5-080d-49f4d83e522f">
    <mxGraphModel dx="1026" dy="694" grid="1" gridSize="10" guides="1" tooltips="1" connect="1" arrows="1" fold="1" page="1" pageScale="1.5" pageWidth="1169" pageHeight="827" background="#ffffff" math="0" shadow="0">
      <root>
        <mxCell id="0"/>
        <mxCell id="1" parent="0"/>
        <mxCell id="3" value="Deputy Director" style="rounded=1;fillColor=#10739E;strokeColor=none;shadow=1;gradientColor=none;fontStyle=1;fontColor=#FFFFFF;fontSize=14;" parent="1" vertex="1">
          <mxGeometry x="662" y="345.5" width="220" height="60" as="geometry"/>
        </mxCell>
        <mxCell id="4" value="Office of &#xa;Workplace Solutions" style="rounded=1;fillColor=#10739E;strokeColor=none;shadow=1;gradientColor=none;fontStyle=1;fontColor=#FFFFFF;fontSize=14;" parent="1" vertex="1">
          <mxGeometry x="302" y="455.5" width="200" height="60" as="geometry"/>
        </mxCell>
        <mxCell id="5" value="Office of Public Relations" style="rounded=1;fillColor=#10739E;strokeColor=none;shadow=1;gradientColor=none;fontStyle=1;fontColor=#FFFFFF;fontSize=14;" parent="1" vertex="1">
          <mxGeometry x="542" y="455.5" width="200" height="60" as="geometry"/>
        </mxCell>
        <mxCell id="6" value="Counsel Division" style="rounded=1;fillColor=#10739E;strokeColor=none;shadow=1;gradientColor=none;fontStyle=1;fontColor=#FFFFFF;fontSize=14;" parent="1" vertex="1">
          <mxGeometry x="872" y="455.5" width="200" height="60" as="geometry"/>
        </mxCell>
        <mxCell id="7" value="Cooperation" style="rounded=1;fillColor=#10739E;strokeColor=none;shadow=1;gradientColor=none;fontStyle=1;fontColor=#FFFFFF;fontSize=14;" parent="1" vertex="1">
          <mxGeometry x="1272" y="455.5" width="200" height="60" as="geometry"/>
        </mxCell>
        <mxCell id="8" value="Analysis &#xa;Division" style="rounded=1;fillColor=#10739E;strokeColor=none;shadow=1;gradientColor=none;fontStyle=1;fontColor=#FFFFFF;fontSize=14;" parent="1" vertex="1">
          <mxGeometry x="282" y="625.5" width="200" height="60" as="geometry"/>
        </mxCell>
        <mxCell id="9" value="Office of Global Support" style="rounded=1;fillColor=#10739E;strokeColor=none;shadow=1;gradientColor=none;fontStyle=1;fontColor=#FFFFFF;fontSize=14;" parent="1" vertex="1">
          <mxGeometry x="282" y="705.5" width="200" height="60" as="geometry"/>
        </mxCell>
        <mxCell id="10" value="Office of &#xa;Backtrack Analysis" style="rounded=1;fillColor=#10739E;strokeColor=none;shadow=1;gradientColor=none;fontStyle=1;fontColor=#FFFFFF;fontSize=14;" parent="1" vertex="1">
          <mxGeometry x="282" y="795.5" width="200" height="60" as="geometry"/>
        </mxCell>
        <mxCell id="11" value="Department of &#xa;Heuristic Support" style="rounded=1;fillColor=#10739E;strokeColor=none;shadow=1;gradientColor=none;fontStyle=1;fontColor=#FFFFFF;fontSize=14;" parent="1" vertex="1">
          <mxGeometry x="282" y="885.5" width="200" height="60" as="geometry"/>
        </mxCell>
        <mxCell id="12" value="Office of Intelligence &#xa;Support" style="rounded=1;fillColor=#10739E;strokeColor=none;shadow=1;gradientColor=none;fontStyle=1;fontColor=#FFFFFF;fontSize=14;" parent="1" vertex="1">
          <mxGeometry x="282" y="975.5" width="200" height="60" as="geometry"/>
        </mxCell>
        <mxCell id="13" value="IT&#xa;Division" style="rounded=1;fillColor=#10739E;strokeColor=none;shadow=1;gradientColor=none;fontStyle=1;fontColor=#FFFFFF;fontSize=14;" parent="1" vertex="1">
          <mxGeometry x="552" y="615.5" width="200" height="60" as="geometry"/>
        </mxCell>
        <mxCell id="14" value="Database Administration" style="rounded=1;fillColor=#10739E;strokeColor=none;shadow=1;gradientColor=none;fontStyle=1;fontColor=#FFFFFF;fontSize=14;" parent="1" vertex="1">
          <mxGeometry x="552" y="705.5" width="200" height="60" as="geometry"/>
        </mxCell>
        <mxCell id="15" value="Office of Technology &#xa;Research" style="rounded=1;fillColor=#10739E;strokeColor=none;shadow=1;gradientColor=none;fontStyle=1;fontColor=#FFFFFF;fontSize=14;" parent="1" vertex="1">
          <mxGeometry x="552" y="795.5" width="200" height="60" as="geometry"/>
        </mxCell>
        <mxCell id="16" value="Office of&#xa;Data Services" style="rounded=1;fillColor=#10739E;strokeColor=none;shadow=1;gradientColor=none;fontStyle=1;fontColor=#FFFFFF;fontSize=14;" parent="1" vertex="1">
          <mxGeometry x="552" y="885.5" width="200" height="60" as="geometry"/>
        </mxCell>
        <mxCell id="18" value="Management Programs &#xa;Division" style="rounded=1;fillColor=#10739E;strokeColor=none;shadow=1;gradientColor=none;fontStyle=1;fontColor=#FFFFFF;fontSize=14;" parent="1" vertex="1">
          <mxGeometry x="842" y="615.5" width="200" height="60" as="geometry"/>
        </mxCell>
        <mxCell id="19" value="Office of Financial &#xa;Management" style="rounded=1;fillColor=#10739E;strokeColor=none;shadow=1;gradientColor=none;fontStyle=1;fontColor=#FFFFFF;fontSize=14;" parent="1" vertex="1">
          <mxGeometry x="842" y="705.5" width="200" height="60" as="geometry"/>
        </mxCell>
        <mxCell id="20" value="Office of Human Resources" style="rounded=1;fillColor=#10739E;strokeColor=none;shadow=1;gradientColor=none;fontStyle=1;fontColor=#FFFFFF;fontSize=14;" parent="1" vertex="1">
          <mxGeometry x="842" y="795.5" width="200" height="60" as="geometry"/>
        </mxCell>
        <mxCell id="21" value="Office of Management " style="rounded=1;fillColor=#10739E;strokeColor=none;shadow=1;gradientColor=none;fontStyle=1;fontColor=#FFFFFF;fontSize=14;" parent="1" vertex="1">
          <mxGeometry x="842" y="885.5" width="200" height="60" as="geometry"/>
        </mxCell>
        <mxCell id="22" value="Office of Training Services" style="rounded=1;fillColor=#10739E;strokeColor=none;shadow=1;gradientColor=none;fontStyle=1;fontColor=#FFFFFF;fontSize=14;" parent="1" vertex="1">
          <mxGeometry x="842" y="975.5" width="200" height="60" as="geometry"/>
        </mxCell>
        <mxCell id="23" value="Regulatory &#xa;and Enforcement Division" style="rounded=1;fillColor=#10739E;strokeColor=none;shadow=1;gradientColor=none;fontStyle=1;fontColor=#FFFFFF;fontSize=14;" parent="1" vertex="1">
          <mxGeometry x="1092" y="615.5" width="200" height="60" as="geometry"/>
        </mxCell>
        <mxCell id="24" value="Office of Regulatory Policy" style="rounded=1;fillColor=#10739E;strokeColor=none;shadow=1;gradientColor=none;fontStyle=1;fontColor=#FFFFFF;fontSize=14;" parent="1" vertex="1">
          <mxGeometry x="1092" y="705.5" width="200" height="60" as="geometry"/>
        </mxCell>
        <mxCell id="25" value="Office Compliance" style="rounded=1;fillColor=#10739E;strokeColor=none;shadow=1;gradientColor=none;fontStyle=1;fontColor=#FFFFFF;fontSize=14;" parent="1" vertex="1">
          <mxGeometry x="1092" y="795.5" width="200" height="60" as="geometry"/>
        </mxCell>
        <mxCell id="26" value="Office of &#xa;Enforcement" style="rounded=1;fillColor=#10739E;strokeColor=none;shadow=1;gradientColor=none;fontStyle=1;fontColor=#FFFFFF;fontSize=14;" parent="1" vertex="1">
          <mxGeometry x="1092" y="885.5" width="200" height="60" as="geometry"/>
        </mxCell>
        <mxCell id="27" value="Office of&#xa; Regulatory Support" style="rounded=1;fillColor=#10739E;strokeColor=none;shadow=1;gradientColor=none;fontStyle=1;fontColor=#FFFFFF;fontSize=14;" parent="1" vertex="1">
          <mxGeometry x="1092" y="975.5" width="200" height="60" as="geometry"/>
        </mxCell>
        <mxCell id="29" value="" style="edgeStyle=elbowEdgeStyle;elbow=vertical;strokeWidth=4;endArrow=block;endFill=1;fontStyle=1;strokeColor=#23445D;" parent="1" source="2" target="3" edge="1">
          <mxGeometry x="22" y="165.5" width="100" height="100" as="geometry">
            <mxPoint x="22" y="265.5" as="sourcePoint"/>
            <mxPoint x="122" y="165.5" as="targetPoint"/>
          </mxGeometry>
        </mxCell>
        <mxCell id="30" value="" style="edgeStyle=elbowEdgeStyle;elbow=vertical;strokeWidth=4;endArrow=block;endFill=1;fontStyle=1;strokeColor=#23445D;" parent="1" source="3" target="5" edge="1">
          <mxGeometry x="22" y="165.5" width="100" height="100" as="geometry">
            <mxPoint x="22" y="265.5" as="sourcePoint"/>
            <mxPoint x="122" y="165.5" as="targetPoint"/>
          </mxGeometry>
        </mxCell>
        <mxCell id="31" value="" style="edgeStyle=elbowEdgeStyle;elbow=vertical;strokeWidth=4;endArrow=block;endFill=1;fontStyle=1;strokeColor=#23445D;" parent="1" source="3" target="4" edge="1">
          <mxGeometry x="22" y="165.5" width="100" height="100" as="geometry">
            <mxPoint x="22" y="265.5" as="sourcePoint"/>
            <mxPoint x="122" y="165.5" as="targetPoint"/>
          </mxGeometry>
        </mxCell>
        <mxCell id="32" value="" style="edgeStyle=elbowEdgeStyle;elbow=vertical;strokeWidth=4;endArrow=block;endFill=1;fontStyle=1;strokeColor=#23445D;" parent="1" source="3" target="6" edge="1">
          <mxGeometry x="22" y="165.5" width="100" height="100" as="geometry">
            <mxPoint x="22" y="265.5" as="sourcePoint"/>
            <mxPoint x="122" y="165.5" as="targetPoint"/>
          </mxGeometry>
        </mxCell>
        <mxCell id="33" value="" style="edgeStyle=elbowEdgeStyle;elbow=vertical;strokeWidth=4;endArrow=block;endFill=1;fontStyle=1;dashed=1;strokeColor=#23445D;" parent="1" source="2" target="7" edge="1">
          <mxGeometry x="22" y="165.5" width="100" height="100" as="geometry">
            <mxPoint x="22" y="265.5" as="sourcePoint"/>
            <mxPoint x="122" y="165.5" as="targetPoint"/>
            <Array as="points">
              <mxPoint x="1062" y="295.5"/>
            </Array>
          </mxGeometry>
        </mxCell>
        <mxCell id="34" value="" style="edgeStyle=elbowEdgeStyle;elbow=vertical;strokeWidth=4;endArrow=block;endFill=1;fontStyle=1;strokeColor=#23445D;" parent="1" source="3" target="8" edge="1">
          <mxGeometry x="22" y="165.5" width="100" height="100" as="geometry">
            <mxPoint x="22" y="265.5" as="sourcePoint"/>
            <mxPoint x="122" y="165.5" as="targetPoint"/>
            <Array as="points">
              <mxPoint x="552" y="555.5"/>
            </Array>
          </mxGeometry>
        </mxCell>
        <mxCell id="37" value="" style="edgeStyle=elbowEdgeStyle;elbow=vertical;strokeWidth=4;endArrow=block;endFill=1;fontStyle=1;strokeColor=#23445D;" parent="1" source="3" target="23" edge="1">
          <mxGeometry x="22" y="165.5" width="100" height="100" as="geometry">
            <mxPoint x="22" y="265.5" as="sourcePoint"/>
            <mxPoint x="122" y="165.5" as="targetPoint"/>
            <Array as="points">
              <mxPoint x="972" y="555.5"/>
            </Array>
          </mxGeometry>
        </mxCell>
        <mxCell id="38" value="" style="edgeStyle=elbowEdgeStyle;elbow=vertical;strokeWidth=4;endArrow=block;endFill=1;fontStyle=1;strokeColor=#23445D;" parent="1" source="8" target="9" edge="1">
          <mxGeometry x="62" y="165.5" width="100" height="100" as="geometry">
            <mxPoint x="62" y="265.5" as="sourcePoint"/>
            <mxPoint x="162" y="165.5" as="targetPoint"/>
          </mxGeometry>
        </mxCell>
        <mxCell id="39" value="" style="edgeStyle=elbowEdgeStyle;elbow=vertical;strokeWidth=4;endArrow=block;endFill=1;fontStyle=1;strokeColor=#23445D;" parent="1" source="9" target="10" edge="1">
          <mxGeometry x="62" y="175.5" width="100" height="100" as="geometry">
            <mxPoint x="62" y="275.5" as="sourcePoint"/>
            <mxPoint x="162" y="175.5" as="targetPoint"/>
          </mxGeometry>
        </mxCell>
        <mxCell id="40" value="" style="edgeStyle=elbowEdgeStyle;elbow=vertical;strokeWidth=4;endArrow=block;endFill=1;fontStyle=1;strokeColor=#23445D;" parent="1" source="10" target="11" edge="1">
          <mxGeometry x="62" y="185.5" width="100" height="100" as="geometry">
            <mxPoint x="62" y="285.5" as="sourcePoint"/>
            <mxPoint x="162" y="185.5" as="targetPoint"/>
          </mxGeometry>
        </mxCell>
        <mxCell id="41" value="" style="edgeStyle=elbowEdgeStyle;elbow=vertical;strokeWidth=4;endArrow=block;endFill=1;fontStyle=1;strokeColor=#23445D;" parent="1" source="11" target="12" edge="1">
          <mxGeometry x="62" y="195.5" width="100" height="100" as="geometry">
            <mxPoint x="62" y="295.5" as="sourcePoint"/>
            <mxPoint x="162" y="195.5" as="targetPoint"/>
          </mxGeometry>
        </mxCell>
        <mxCell id="42" value="" style="edgeStyle=elbowEdgeStyle;elbow=vertical;strokeWidth=4;endArrow=block;endFill=1;fontStyle=1;strokeColor=#23445D;" parent="1" source="13" target="14" edge="1">
          <mxGeometry x="62" y="165.5" width="100" height="100" as="geometry">
            <mxPoint x="62" y="265.5" as="sourcePoint"/>
            <mxPoint x="162" y="165.5" as="targetPoint"/>
          </mxGeometry>
        </mxCell>
        <mxCell id="43" value="" style="edgeStyle=elbowEdgeStyle;elbow=vertical;strokeWidth=4;endArrow=block;endFill=1;fontStyle=1;strokeColor=#23445D;" parent="1" source="14" target="15" edge="1">
          <mxGeometry x="62" y="175.5" width="100" height="100" as="geometry">
            <mxPoint x="62" y="275.5" as="sourcePoint"/>
            <mxPoint x="162" y="175.5" as="targetPoint"/>
          </mxGeometry>
        </mxCell>
        <mxCell id="44" value="" style="edgeStyle=elbowEdgeStyle;elbow=vertical;strokeWidth=4;endArrow=block;endFill=1;fontStyle=1;strokeColor=#23445D;" parent="1" source="15" target="16" edge="1">
          <mxGeometry x="62" y="185.5" width="100" height="100" as="geometry">
            <mxPoint x="62" y="285.5" as="sourcePoint"/>
            <mxPoint x="162" y="185.5" as="targetPoint"/>
          </mxGeometry>
        </mxCell>
        <mxCell id="46" value="" style="edgeStyle=elbowEdgeStyle;elbow=vertical;strokeWidth=4;endArrow=block;endFill=1;fontStyle=1;strokeColor=#23445D;" parent="1" source="18" target="19" edge="1">
          <mxGeometry x="72" y="165.5" width="100" height="100" as="geometry">
            <mxPoint x="72" y="265.5" as="sourcePoint"/>
            <mxPoint x="172" y="165.5" as="targetPoint"/>
          </mxGeometry>
        </mxCell>
        <mxCell id="47" value="" style="edgeStyle=elbowEdgeStyle;elbow=vertical;strokeWidth=4;endArrow=block;endFill=1;fontStyle=1;strokeColor=#23445D;" parent="1" source="19" target="20" edge="1">
          <mxGeometry x="72" y="175.5" width="100" height="100" as="geometry">
            <mxPoint x="72" y="275.5" as="sourcePoint"/>
            <mxPoint x="172" y="175.5" as="targetPoint"/>
          </mxGeometry>
        </mxCell>
        <mxCell id="48" value="" style="edgeStyle=elbowEdgeStyle;elbow=vertical;strokeWidth=4;endArrow=block;endFill=1;fontStyle=1;strokeColor=#23445D;" parent="1" source="20" target="21" edge="1">
          <mxGeometry x="72" y="185.5" width="100" height="100" as="geometry">
            <mxPoint x="72" y="285.5" as="sourcePoint"/>
            <mxPoint x="172" y="185.5" as="targetPoint"/>
          </mxGeometry>
        </mxCell>
        <mxCell id="49" value="" style="edgeStyle=elbowEdgeStyle;elbow=vertical;strokeWidth=4;endArrow=block;endFill=1;fontStyle=1;strokeColor=#23445D;" parent="1" source="21" target="22" edge="1">
          <mxGeometry x="72" y="195.5" width="100" height="100" as="geometry">
            <mxPoint x="72" y="295.5" as="sourcePoint"/>
            <mxPoint x="172" y="195.5" as="targetPoint"/>
          </mxGeometry>
        </mxCell>
        <mxCell id="50" value="" style="edgeStyle=elbowEdgeStyle;elbow=vertical;strokeWidth=4;endArrow=block;endFill=1;fontStyle=1;strokeColor=#23445D;" parent="1" source="23" target="24" edge="1">
          <mxGeometry x="72" y="165.5" width="100" height="100" as="geometry">
            <mxPoint x="72" y="265.5" as="sourcePoint"/>
            <mxPoint x="172" y="165.5" as="targetPoint"/>
          </mxGeometry>
        </mxCell>
        <mxCell id="51" value="" style="edgeStyle=elbowEdgeStyle;elbow=vertical;strokeWidth=4;endArrow=block;endFill=1;fontStyle=1;strokeColor=#23445D;" parent="1" source="24" target="25" edge="1">
          <mxGeometry x="72" y="175.5" width="100" height="100" as="geometry">
            <mxPoint x="72" y="275.5" as="sourcePoint"/>
            <mxPoint x="172" y="175.5" as="targetPoint"/>
          </mxGeometry>
        </mxCell>
        <mxCell id="52" value="" style="edgeStyle=elbowEdgeStyle;elbow=vertical;strokeWidth=4;endArrow=block;endFill=1;fontStyle=1;strokeColor=#23445D;" parent="1" source="25" target="26" edge="1">
          <mxGeometry x="72" y="185.5" width="100" height="100" as="geometry">
            <mxPoint x="72" y="285.5" as="sourcePoint"/>
            <mxPoint x="172" y="185.5" as="targetPoint"/>
          </mxGeometry>
        </mxCell>
        <mxCell id="53" value="" style="edgeStyle=elbowEdgeStyle;elbow=vertical;strokeWidth=4;endArrow=block;endFill=1;fontStyle=1;strokeColor=#23445D;" parent="1" source="26" target="27" edge="1">
          <mxGeometry x="72" y="195.5" width="100" height="100" as="geometry">
            <mxPoint x="72" y="295.5" as="sourcePoint"/>
            <mxPoint x="172" y="195.5" as="targetPoint"/>
          </mxGeometry>
        </mxCell>
        <mxCell id="54" value="" style="edgeStyle=elbowEdgeStyle;elbow=vertical;strokeWidth=4;endArrow=block;endFill=1;fontStyle=1;strokeColor=#23445D;" parent="1" source="3" target="13" edge="1">
          <mxGeometry x="22" y="165.5" width="100" height="100" as="geometry">
            <mxPoint x="22" y="265.5" as="sourcePoint"/>
            <mxPoint x="122" y="165.5" as="targetPoint"/>
            <Array as="points">
              <mxPoint x="652" y="555.5"/>
            </Array>
          </mxGeometry>
        </mxCell>
        <mxCell id="55" value="" style="edgeStyle=elbowEdgeStyle;elbow=vertical;strokeWidth=4;endArrow=block;endFill=1;fontStyle=1;strokeColor=#23445D;" parent="1" source="3" target="18" edge="1">
          <mxGeometry x="22" y="165.5" width="100" height="100" as="geometry">
            <mxPoint x="22" y="265.5" as="sourcePoint"/>
            <mxPoint x="122" y="165.5" as="targetPoint"/>
            <Array as="points">
              <mxPoint x="942" y="555.5"/>
            </Array>
          </mxGeometry>
        </mxCell>
        <mxCell id="oFZl8VEBpffHlWtBTRyx-55" value="Text" style="text;html=1;strokeColor=none;fillColor=none;align=center;verticalAlign=middle;whiteSpace=wrap;rounded=0;" vertex="1" parent="1">
          <mxGeometry x="280" y="1060" width="40" height="20" as="geometry"/>
        </mxCell>
        <mxCell id="oFZl8VEBpffHlWtBTRyx-58" value="" style="whiteSpace=wrap;html=1;aspect=fixed;fillColor=#BABABA;" vertex="1" parent="1">
          <mxGeometry x="280" y="1200" width="80" height="80" as="geometry"/>
        </mxCell>
        <mxCell id="oFZl8VEBpffHlWtBTRyx-62" value="" style="group" vertex="1" connectable="0" parent="1">
          <mxGeometry x="690" y="170" width="232" height="65.5" as="geometry"/>
        </mxCell>
        <mxCell id="2" value="Derek Christopher&#xa;President" style="rounded=1;fillColor=#10739E;strokeColor=none;shadow=1;gradientColor=none;fontStyle=1;fontColor=#FFFFFF;fontSize=14;" parent="oFZl8VEBpffHlWtBTRyx-62" vertex="1">
          <mxGeometry x="32" y="5.5" width="200" height="60" as="geometry"/>
        </mxCell>
        <mxCell id="oFZl8VEBpffHlWtBTRyx-61" value="" style="group" vertex="1" connectable="0" parent="oFZl8VEBpffHlWtBTRyx-62">
          <mxGeometry width="60" height="60" as="geometry"/>
        </mxCell>
        <mxCell id="oFZl8VEBpffHlWtBTRyx-59" value="" style="rounded=1;whiteSpace=wrap;html=1;fillColor=#BABABA;" vertex="1" parent="oFZl8VEBpffHlWtBTRyx-61">
          <mxGeometry width="60" height="60" as="geometry"/>
        </mxCell>
        <mxCell id="oFZl8VEBpffHlWtBTRyx-56" value="" style="shape=actor;whiteSpace=wrap;html=1;fillColor=#FFFFFF;" vertex="1" parent="oFZl8VEBpffHlWtBTRyx-61">
          <mxGeometry x="10" y="4.5" width="40" height="50" as="geometry"/>
        </mxCell>
        <mxCell id="oFZl8VEBpffHlWtBTRyx-63" value="" style="group" vertex="1" connectable="0" parent="1">
          <mxGeometry x="400" y="160" width="232" height="65.5" as="geometry"/>
        </mxCell>
        <mxCell id="oFZl8VEBpffHlWtBTRyx-64" value="Derek Christopher&#xa;President" style="rounded=1;fillColor=#10739E;strokeColor=none;shadow=1;gradientColor=none;fontStyle=1;fontColor=#FFFFFF;fontSize=14;" vertex="1" parent="oFZl8VEBpffHlWtBTRyx-63">
          <mxGeometry x="32" y="5.5" width="200" height="60" as="geometry"/>
        </mxCell>
        <mxCell id="oFZl8VEBpffHlWtBTRyx-65" value="" style="group" vertex="1" connectable="0" parent="oFZl8VEBpffHlWtBTRyx-63">
          <mxGeometry width="60" height="60" as="geometry"/>
        </mxCell>
        <mxCell id="oFZl8VEBpffHlWtBTRyx-66" value="" style="rounded=1;whiteSpace=wrap;html=1;fillColor=#BABABA;" vertex="1" parent="oFZl8VEBpffHlWtBTRyx-65">
          <mxGeometry width="60" height="60" as="geometry"/>
        </mxCell>
        <mxCell id="oFZl8VEBpffHlWtBTRyx-67" value="" style="shape=actor;whiteSpace=wrap;html=1;fillColor=#FFFFFF;" vertex="1" parent="oFZl8VEBpffHlWtBTRyx-65">
          <mxGeometry x="10" y="4.5" width="40" height="50" as="geometry"/>
        </mxCell>
        <mxCell id="oFZl8VEBpffHlWtBTRyx-68" value="" style="group" vertex="1" connectable="0" parent="1">
          <mxGeometry x="400" y="240" width="232" height="65.5" as="geometry"/>
        </mxCell>
        <mxCell id="oFZl8VEBpffHlWtBTRyx-69" value="Nick Andreychek&#xa;Vice President" style="rounded=1;fillColor=#10739E;strokeColor=none;shadow=1;gradientColor=none;fontStyle=1;fontColor=#FFFFFF;fontSize=14;" vertex="1" parent="oFZl8VEBpffHlWtBTRyx-68">
          <mxGeometry x="32" y="5.5" width="200" height="60" as="geometry"/>
        </mxCell>
        <mxCell id="oFZl8VEBpffHlWtBTRyx-70" value="" style="group" vertex="1" connectable="0" parent="oFZl8VEBpffHlWtBTRyx-68">
          <mxGeometry width="60" height="60" as="geometry"/>
        </mxCell>
        <mxCell id="oFZl8VEBpffHlWtBTRyx-71" value="" style="rounded=1;whiteSpace=wrap;html=1;fillColor=#BABABA;" vertex="1" parent="oFZl8VEBpffHlWtBTRyx-70">
          <mxGeometry width="60" height="60" as="geometry"/>
        </mxCell>
        <mxCell id="oFZl8VEBpffHlWtBTRyx-72" value="" style="shape=actor;whiteSpace=wrap;html=1;fillColor=#FFFFFF;" vertex="1" parent="oFZl8VEBpffHlWtBTRyx-70">
          <mxGeometry x="10" y="4.5" width="40" height="50" as="geometry"/>
        </mxCell>
      </root>
    </mxGraphModel>
  </diagram>
</mxfile>
